<svg width="55" height="41" viewBox="0 0 55 41" fill="none" xmlns="http://www.w3.org/2000/svg">
<path fill-rule="evenodd" clip-rule="evenodd" d="M38.9733 7.96256C39.0497 8.4132 39.1178 8.801 39.1549 9.00577C39.3835 10.2512 39.5758 13.4135 40.4575 15.5642C41.1296 17.2052 42.2037 18.264 43.8374 17.8827C45.3222 17.536 46.2464 16.0557 46.6913 14.0092C47.6486 9.60477 46.4942 2.56841 45.5965 0.53276C45.4983 0.310582 45.2396 0.209873 45.0174 0.307995C44.7962 0.405614 44.6955 0.664336 44.7937 0.886514C45.6546 2.84021 46.7526 9.59468 45.8337 13.8231C45.4742 15.4757 44.8368 16.748 43.6373 17.0278C42.4536 17.3044 41.7571 16.4213 41.2699 15.2317C40.4114 13.1388 40.2404 10.06 40.0185 8.84723C39.879 8.087 39.4288 5.17263 39.33 4.93213C39.2066 4.63089 38.9511 4.63911 38.8675 4.64812C38.8026 4.65501 38.4816 4.71023 38.4671 5.10901C38.2561 10.7949 33.9968 19.3741 27.7318 25.117C21.5219 30.8096 13.3116 33.713 5.08632 28.0661C4.88628 27.9293 4.61278 27.9802 4.47549 28.1793C4.33872 28.3793 4.38964 28.6528 4.58968 28.7896C13.2081 34.7062 21.8191 31.7282 28.3247 25.7647C33.8077 20.7388 37.7734 13.59 38.9733 7.96256Z" fill="#0D121F"/>
<path fill-rule="evenodd" clip-rule="evenodd" d="M5.30498 28.6631C6.33649 28.5782 7.36625 28.5264 8.39175 28.3613C11.1239 27.9218 13.8698 26.8864 16.0858 25.2124C16.2794 25.0655 16.3171 24.7903 16.1716 24.5972C16.0247 24.4036 15.7495 24.3659 15.5564 24.5113C13.4543 26.1014 10.8447 27.0774 8.25251 27.4941C7.0786 27.6826 5.89769 27.7205 4.71632 27.8332C4.65742 27.8396 4.14259 27.8729 4.03587 27.9098C3.78685 27.9942 3.73766 28.1882 3.72642 28.2809C3.71607 28.3582 3.72218 28.4533 3.77245 28.5594C3.81416 28.6463 3.93205 28.7925 4.13128 28.9546C4.76784 29.4756 6.42697 30.4778 6.68188 30.6712C9.60443 32.8869 11.9514 35.4388 14.4895 38.0638C14.6586 38.2374 14.937 38.2425 15.1111 38.0743C15.2853 37.9062 15.2893 37.6283 15.1212 37.4542C12.5511 34.7958 10.1708 32.2148 7.21242 29.9726C7.03766 29.8391 6.02898 29.1533 5.30498 28.6631Z" fill="#0D121F"/>
</svg>
    